<svg width="160" height="64" viewBox="0 0 160 64" fill="none" xmlns="http://www.w3.org/2000/svg">
<path d="M111.259 46.7276C110.451 48.5814 107.983 49.7465 106.543 48.9791C107.043 48.2877 107.536 47.6013 108.038 46.92C108.099 46.8365 108.213 46.7377 108.304 46.7352C109.274 46.7225 110.246 46.7276 111.259 46.7276Z" fill="white"/>
<path d="M78.4341 3.04223C78.4341 3.67285 78.4543 4.30601 78.429 4.93664C78.3937 5.87371 78.1714 6.19535 77.262 6.42582C74.7765 7.05644 72.2808 7.63894 69.7927 8.25944C68.3832 8.61147 67.7543 9.41178 67.7517 10.8706C67.7416 14.3909 67.7113 17.9113 67.7694 21.4316C67.7896 22.6397 67.9816 23.8579 68.2216 25.0431C68.5904 26.8565 69.5578 28.3431 71.0582 29.4322C72.8113 30.7036 74.5618 31.9825 76.3931 33.1298C77.8683 34.0517 78.4315 35.3307 78.429 36.9794C78.4265 38.152 78.4618 39.3271 78.4467 40.4997C78.4416 40.8214 78.3179 41.1405 78.2471 41.4621C77.9213 41.3456 77.5525 41.2925 77.2772 41.105C76.0319 40.249 74.8118 39.3601 73.5867 38.4736C71.5963 37.0326 69.626 35.5586 67.6153 34.1479C64.4023 31.8914 62.7528 28.718 62.1693 24.9317C61.9723 23.6451 61.8991 22.3307 61.889 21.0289C61.8536 17.0578 61.8763 13.0841 61.8763 9.11293C61.8763 5.91676 63.4525 3.61207 66.5165 2.74845C70.0453 1.75566 73.6246 0.937619 77.1862 0.066396C78.0097 -0.133681 78.333 0.106918 78.3987 0.945217C78.4517 1.63916 78.4088 2.34323 78.4088 3.04223H78.4341Z" fill="white"/>
<path d="M98.1062 16.0762C98.1062 18.3783 98.1719 20.683 98.0911 22.9826C97.9774 26.2497 97.1943 29.3598 95.0649 31.9101C94.0268 33.1536 92.6905 34.1794 91.3821 35.162C88.6439 37.2236 85.8426 39.2016 83.0489 41.1871C82.6852 41.4455 82.2128 41.5518 81.791 41.7291C81.7152 41.296 81.5889 40.8655 81.5763 40.4324C81.5459 39.2142 81.551 37.996 81.5636 36.7753C81.5763 35.5495 82.0309 34.5567 83.0817 33.845C84.5746 32.832 85.9816 31.6797 87.53 30.7654C90.5131 29.0052 92.0792 26.4017 92.1853 23.0156C92.3116 18.9355 92.2712 14.8504 92.2333 10.7678C92.2207 9.50146 91.5639 8.84805 90.3414 8.54667C87.9392 7.95656 85.5294 7.38672 83.1272 6.79409C81.9324 6.5003 81.7076 6.2673 81.6419 5.06684C81.5712 3.80559 81.551 2.54181 81.5611 1.27803C81.5687 0.38908 81.9627 0.0877003 82.8266 0.302973C86.4514 1.20712 90.0837 2.08088 93.6858 3.07367C96.4264 3.82839 98.1037 6.19132 98.1087 9.03039C98.1087 11.3807 98.1062 13.7284 98.1062 16.0762Z" fill="white"/>
<path d="M113.499 57.2829C113.499 58.0097 113.467 58.7366 113.504 59.4609C113.623 61.7023 112.542 62.6748 110.577 63.2852C108.589 63.9031 106.556 63.8879 104.537 63.3966C104.04 63.275 103.552 63.0547 103.1 62.8065C102.042 62.2265 101.486 61.3199 101.483 60.0941C101.478 58.2807 101.438 56.4648 101.468 54.6515C101.493 53.0255 102.249 51.7997 103.79 51.2197C106.328 50.2624 108.902 50.27 111.408 51.3286C112.721 51.8833 113.439 52.9622 113.467 54.4261C113.484 55.3783 113.469 56.3306 113.469 57.2829H113.499ZM104.646 57.1182H104.651V58.4099C104.651 58.8404 104.643 59.271 104.651 59.7015C104.666 60.7855 104.906 61.1856 105.977 61.3199C106.972 61.444 108.005 61.4338 109.006 61.3249C109.968 61.2211 110.286 60.7905 110.302 59.8079C110.332 58.0173 110.324 56.2267 110.304 54.4336C110.296 53.6713 109.93 53.1927 109.195 52.9875C108.013 52.6583 106.818 52.6912 105.641 53.023C104.974 53.2104 104.646 53.6967 104.643 54.3957C104.646 55.3049 104.646 56.2116 104.646 57.1182Z" fill="white"/>
<path d="M135.483 57.3946C135.483 56.4474 135.457 55.5002 135.488 54.553C135.538 52.9828 136.341 51.9418 137.794 51.3771C139.393 50.7566 141.06 50.7692 142.73 50.8832C143.427 50.9288 144.116 51.0478 144.814 51.1061C145.243 51.1441 145.478 51.2986 145.448 51.7772C145.425 52.1343 145.455 52.499 145.496 52.8587C145.566 53.4842 145.311 53.545 144.743 53.4614C143.412 53.2689 142.065 53.1752 140.726 53.0435C140.638 53.0359 140.547 53.0461 140.456 53.0537C138.898 53.2006 138.488 53.7299 138.559 55.295C138.625 56.7589 138.592 58.2278 138.612 59.6917C138.627 60.7807 138.883 61.1201 139.928 61.4468C141.34 61.8875 142.742 61.6139 144.139 61.3505C145.581 61.0796 145.417 60.8997 145.425 62.4092C145.425 62.6574 145.463 62.9233 145.389 63.1487C145.331 63.3235 145.142 63.5565 144.983 63.5818C142.884 63.8882 140.782 64.1111 138.67 63.6223C136.417 63.1006 135.457 61.9229 135.465 59.6284C135.467 58.8838 135.465 58.1392 135.465 57.3946H135.483Z" fill="white"/>
<path d="M63.8263 57.1211C63.8263 56.1739 63.8011 55.2267 63.8314 54.2795C63.8819 52.7093 64.6852 51.6684 66.1376 51.1036C67.7365 50.4831 69.4037 50.4958 71.0733 50.6098C71.7705 50.6554 72.4601 50.7744 73.1572 50.8326C73.5867 50.8706 73.8216 51.0251 73.7913 51.5038C73.7685 51.8609 73.7988 52.2256 73.8393 52.5852C73.91 53.2108 73.6549 53.2716 73.0865 53.188C71.7553 52.9955 70.409 52.9018 69.0702 52.7701C68.9818 52.7625 68.8909 52.7726 68.7999 52.7802C67.2414 52.9271 66.8322 53.4564 66.903 55.0216C66.9686 56.4855 66.9358 57.9544 66.956 59.4182C66.9712 60.5073 67.2263 60.8466 68.272 61.1733C69.684 61.614 71.086 61.3405 72.4828 61.0771C73.9251 60.8061 73.761 60.6263 73.7685 62.1357C73.7685 62.3839 73.8064 62.6499 73.7332 62.8753C73.6751 63.05 73.4856 63.283 73.3265 63.3083C71.2274 63.6148 69.1258 63.8377 67.0141 63.3489C64.7609 62.8271 63.8011 61.6495 63.8086 59.3549C63.8112 58.6103 63.8086 57.8657 63.8086 57.1211H63.8263Z" fill="white"/>
<path d="M3.15494 59.4668V63.9167H0V50.8027H5.21866C6.21894 50.8027 7.10303 50.9876 7.87345 51.3574C8.64387 51.7271 9.24 52.2514 9.66184 52.9327C10.0837 53.6139 10.2959 54.3864 10.2959 55.2526C10.2959 56.5315 9.83865 57.5547 8.92678 58.3196C8.01238 59.0844 6.7595 59.4694 5.16813 59.4694H3.15494V59.4668ZM3.15494 57.0279H5.22118C5.83246 57.0279 6.29724 56.8734 6.61804 56.5695C6.93884 56.2656 7.09798 55.83 7.09798 55.2728C7.09798 54.6599 6.93379 54.1711 6.60289 53.8039C6.27451 53.4367 5.82489 53.2518 5.25654 53.2442H3.15494V57.0279Z" fill="white"/>
<path d="M17.8788 60.3507L20.483 50.8027H24.0043L19.6015 63.9167H16.151L11.7861 50.8027H15.2795L17.8788 60.3507Z" fill="white"/>
<path d="M39.3062 58.35H34.3477V61.4853H40.2054V63.9167H31.1953V50.8027H40.2231V53.2442H34.3477V56.0098H39.3062V58.35Z" fill="white"/>
<path d="M45.4727 61.4853H50.9617V63.9167H42.3203V50.8027H45.4727V61.4853Z" fill="white"/>
<path d="M61.0552 58.4339H56.0967V61.5693H61.9545V64.0006H52.9443V50.8867H61.9721V53.3282H56.0967V56.0938H61.0552V58.4339Z" fill="white"/>
<path d="M86.8777 53.2442H82.9524V63.9167H79.7999V53.2442H75.9453V50.8027H86.8777V53.2442Z" fill="white"/>
<path d="M93.8951 59.2794H92.1876V63.9192H89.0352V50.8027H94.1831C95.734 50.8027 96.9465 51.1472 97.8205 51.836C98.6945 52.5249 99.1315 53.5 99.1315 54.7612C99.1315 55.673 98.9471 56.4277 98.5783 57.0279C98.2095 57.6282 97.6336 58.1144 96.848 58.4867L99.5786 63.7824V63.9167H96.2013L93.8951 59.2794ZM92.1876 56.8456H94.1806C94.7792 56.8456 95.2314 56.6886 95.532 56.372C95.8325 56.0554 95.9866 55.6147 95.9866 55.0499C95.9866 54.4852 95.8351 54.0394 95.5294 53.7178C95.2238 53.3961 94.7742 53.234 94.1831 53.234H92.1901V56.8456H92.1876Z" fill="white"/>
<path d="M126.319 63.9167H123.184L118.549 55.7565V63.9167H115.396V50.8027H118.549L123.176 58.9629V50.8027H126.321V63.9167H126.319Z" fill="white"/>
<path d="M132.5 63.9167H129.355V50.8027H132.5V63.9167Z" fill="white"/>
<path d="M155.852 61.4676H151.53L150.775 63.9167H147.405L152.202 50.8027H155.168L160 63.9167H156.612L155.852 61.4676ZM152.285 59.0262H155.097L153.687 54.4776L152.285 59.0262Z" fill="white"/>
</svg>
